# xmcd
#
# Track frame offsets:
#	150
#	21240
#	40042
#	51119
#	87061
#	105169
#	116024
#	140134
#	156649
#	177699
#	219074
#	244307
#	275100
#	290980
#
# Disc length: 4677 seconds
#
# Revision: 1
# Processed by: cddbd v1.5PL3 Copyright (c) Steve Scherf et al.
# Submitted via: EasyCDDAExtractor 7.0.5.4
#
DISCID=d512430e
DTITLE=<< compilation disc >> - Master of the Stratocaster
DYEAR=2003
DGENRE=Blues
TTITLE0=Couldn't Stand The Weather
TTITLE1=Crossfire
TTITLE2=Life By The Drop
TTITLE3=Voodoo Chile (Slight Return)
TTITLE4=Cold Shot
TTITLE5=The House Is Rockin'
TTITLE6=Texas Flood
TTITLE7=Pride And Joy
TTITLE8=Tightrope
TTITLE9=Tin Pan Alley
TTITLE10=Wall Of Denial
TTITLE11=Little Wing
TTITLE12=Mary Had A Little Lamb (Live)
TTITLE13=Life Without You (Live)
EXTD=
EXTT0=
EXTT1=
EXTT2=
EXTT3=
EXTT4=
EXTT5=
EXTT6=
EXTT7=
EXTT8=
EXTT9=
EXTT10=
EXTT11=
EXTT12=
EXTT13=
PLAYORDER=
